<svg width="512" height="512" viewBox="0 0 512 512" fill="none" xmlns="http://www.w3.org/2000/svg">
  <defs>
    <!-- Background Gradient -->
    <linearGradient id="bgGrad" x1="48" y1="32" x2="464" y2="480" gradientUnits="userSpaceOnUse">
      <stop offset="0%" stop-color="#FF6B2B" />
      <stop offset="45%" stop-color="#F97316" />
      <stop offset="100%" stop-color="#EA580C" />
    </linearGradient>

    <!-- Subtle Inner Glow -->
    <radialGradient id="innerGlow" cx="25%" cy="20%" r="80%">
      <stop offset="0%" stop-color="#FFFFFF" stop-opacity="0.32" />
      <stop offset="45%" stop-color="#FFFFFF" stop-opacity="0.06" />
      <stop offset="100%" stop-color="#FFFFFF" stop-opacity="0" />
    </radialGradient>

    <!-- Deep Ambient Drop Shadow -->
    <filter id="dropShadow" x="-10%" y="-10%" width="130%" height="130%">
      <feDropShadow dx="0" dy="14" stdDeviation="14" flood-color="#5C1D06" flood-opacity="0.36" />
      <feDropShadow dx="0" dy="4" stdDeviation="4" flood-color="#000000" flood-opacity="0.18" />
    </filter>

    <linearGradient id="voucherGrad" x1="200" y1="210" x2="312" y2="300" gradientUnits="userSpaceOnUse">
      <stop offset="0%" stop-color="#FFFFFF" />
      <stop offset="100%" stop-color="#FFF7ED" />
    </linearGradient>
  </defs>

  <!-- Squircle Base (Apple iOS 110px radius) -->
  <rect x="16" y="16" width="480" height="480" rx="110" fill="url(#bgGrad)" />
  <rect x="16" y="16" width="480" height="480" rx="110" fill="url(#innerGlow)" />
  <rect x="17" y="17" width="478" height="478" rx="109" stroke="#FFFFFF" stroke-opacity="0.22" stroke-width="2.5" />

  <g filter="url(#dropShadow)">
    <!-- 1. Top Circular Exchange Arrow (Flowing Clockwise Right & Down) -->
    <!-- Arc Body -->
    <path d="M 148 245 C 148 162 202 110 286 110 C 330 110 364 128 388 158" 
          stroke="#FFFFFF" stroke-width="32" stroke-linecap="round" fill="none" />
    <!-- Solid, Bold Triangular Arrowhead pointing clearly Down-Right -->
    <polygon points="418,178 358,162 396,120" fill="#FFFFFF" />

    <!-- 2. Bottom Circular Exchange Arrow (Flowing Clockwise Left & Up) -->
    <!-- Arc Body -->
    <path d="M 364 267 C 364 350 310 402 226 402 C 182 402 148 384 124 354" 
          stroke="#FFFFFF" stroke-width="32" stroke-linecap="round" fill="none" />
    <!-- Solid, Bold Triangular Arrowhead pointing clearly Up-Left -->
    <polygon points="94,334 154,350 116,392" fill="#FFFFFF" />

    <!-- 3. Center Merchant Shop & 1:1 Mutual Voucher Card -->
    <!-- Shop Awning / Roof Overhang -->
    <path d="M 184 212 L 256 168 L 328 212 Z" fill="#FFFFFF" />

    <!-- Voucher Body -->
    <rect x="194" y="210" width="124" height="92" rx="18" fill="url(#voucherGrad)" />
    
    <!-- Voucher Side Notches (Coupons) -->
    <circle cx="194" cy="256" r="14" fill="#F97316" />
    <circle cx="318" cy="256" r="14" fill="#EA580C" />

    <!-- Central 1:1 Exchange Symbol inside voucher (Horizontal Trade Arrows) -->
    <path d="M 230 246 H 274 M 264 238 L 274 246 L 264 254" 
          stroke="#EA580C" stroke-width="7" stroke-linecap="round" stroke-linejoin="round" />
    <path d="M 282 266 H 238 M 248 258 L 238 266 L 248 274" 
          stroke="#EA580C" stroke-width="7" stroke-linecap="round" stroke-linejoin="round" />
  </g>
</svg>